PathFileType	4	(X/Y/Z)	s07c0103.trc
DataRate	CameraRate	NumFrames	NumMarkers	Units	OrigDataRate	OrigDataStartFrame	OrigNumFrames
200	200	4	47	mm	200	250	2000
Frame#	Time	racr			lacr			c7			jug			rlel			rdr			llel			ldr			s2			lic			ric			lasi			rasi			rpsi			lpsi			rgt			lgt			rth1			rth2			rth3			rth4			rlfc			rmfc			rsh1			rsh2			rsh3			rsh4			rcal			rtoe			rmt5			lth1			lth2			lth4			lth3			llfc			lmfc			lsh1			lsh2			lsh3			lsh4			llmal			lcal			ltoe			lmt5			SBIKE			LBIKE			RBIKE			
		X1	Y1	Z1	X2	Y2	Z2	X3	Y3	Z3	X4	Y4	Z4	X5	Y5	Z5	X6	Y6	Z6	X7	Y7	Z7	X8	Y8	Z8	X9	Y9	Z9	X10	Y10	Z10	X11	Y11	Z11	X12	Y12	Z12	X13	Y13	Z13	X14	Y14	Z14	X15	Y15	Z15	X16	Y16	Z16	X17	Y17	Z17	X18	Y18	Z18	X19	Y19	Z19	X20	Y20	Z20	X21	Y21	Z21	X22	Y22	Z22	X23	Y23	Z23	X24	Y24	Z24	X25	Y25	Z25	X26	Y26	Z26	X27	Y27	Z27	X28	Y28	Z28	X29	Y29	Z29	X30	Y30	Z30	X31	Y31	Z31	X32	Y32	Z32	X33	Y33	Z33	X34	Y34	Z34	X35	Y35	Z35	X36	Y36	Z36	X37	Y37	Z37	X38	Y38	Z38	X39	Y39	Z39	X40	Y40	Z40	X41	Y41	Z41	X42	Y42	Z42	X43	Y43	Z43	X44	Y44	Z44	X45	Y45	Z45	X46	Y46	Z46	X47	Y47	Z47	
250	1.2500	453.690438	1404.883749	-99.147419	443.103042	1386.904738	-391.164701	427.442575	1437.172647	-247.027090	386.513734	1298.148660	-240.078795	493.799577	1081.336554	27.204896	717.838435	911.625790	-75.592101	478.257353	1070.202783	-508.720891	717.986312	910.615720	-420.538498	-144.272091	1202.027450	-247.270926	18.843639	1239.009673	-374.967059	29.949034	1234.846123	-96.105300	51.191888	1163.433338	-364.320153	38.057942	1178.231160	-113.420021	-115.368351	1240.283104	-196.003588	-101.317197	1249.235031	-303.678017	-33.791354	1123.333188	-48.375291	-44.347225	1092.918465	-419.578747	109.164939	1070.185763	-50.639621	195.171782	1058.964309	-64.162251	266.349197	1011.838627	-61.776162	205.110587	1089.100502	-83.350626	384.963514	936.111969	-98.507309	377.258410	921.259182	-205.062955	334.398940	802.702594	-73.328096	319.943064	715.581665	-92.514561	269.398488	645.981177	-85.932053	335.377738	713.693235	-128.459194	140.027884	487.762299	-112.381979	425.802434	440.978586	-131.462264	347.286663	415.547671	-58.894264	17.833953	986.967516	-427.512967	89.740672	935.883484	-432.273247	117.871829	958.542878	-425.854262	126.973549	854.919423	-428.602848	226.503690	703.148132	-397.080715	217.783515	688.025020	-299.773607	139.554769	580.851944	-416.288745	107.797279	503.725677	-394.198565	39.950057	444.757385	-400.962021	113.789499	505.344927	-352.704340	-46.038343	342.479341	-395.598711	-125.116912	326.614393	-361.025164	143.607993	219.302643	-359.801602	59.307288	220.684541	-422.793616	-262.692389	965.272356	-237.380772	-82.905575	79.124640	-436.858811	-82.934140	79.092486	-39.426204	
251	1.2550	453.669586	1404.778856	-99.025652	443.187566	1386.852538	-391.097318	427.547246	1437.055246	-246.911149	386.611053	1298.055398	-240.091378	493.871505	1081.221954	27.207350	717.873828	911.594928	-75.596140	478.264115	1070.168289	-508.702995	717.988388	910.625697	-420.560576	-144.242828	1202.036074	-247.250253	18.888627	1239.009716	-374.950134	29.961781	1234.752124	-95.905318	51.232889	1163.401287	-364.302117	38.091330	1178.204773	-113.434573	-115.329254	1240.276224	-196.008124	-101.220446	1249.242190	-303.657383	-33.785537	1123.312940	-48.386160	-44.292354	1092.928047	-419.585094	109.157432	1070.088537	-50.595499	195.186716	1058.862032	-64.110224	266.374021	1011.700281	-61.805399	205.120733	1089.008439	-83.290202	384.963573	936.014803	-98.638674	377.245062	921.171685	-205.066443	334.339657	802.604104	-73.357250	319.893755	715.523765	-92.505958	269.335272	645.900097	-85.940986	335.334162	713.608240	-128.468966	139.965046	487.632287	-112.395219	425.760639	441.047603	-131.463691	347.280431	415.595322	-58.880389	17.864855	986.940211	-427.490169	89.780981	935.835235	-432.238865	117.917729	958.494640	-425.806237	127.009089	854.883327	-428.567680	226.526681	703.119754	-397.061560	217.772180	687.957208	-299.773705	139.580892	580.774555	-416.256956	107.814652	503.691010	-394.173457	39.941378	444.751961	-400.970645	113.771086	505.319994	-352.676198	-46.067003	342.459710	-395.602744	-125.148287	326.591682	-361.060286	143.607923	219.337490	-359.805237	59.303422	220.677544	-422.781915	-262.673239	965.266788	-237.363409	-82.924914	79.091837	-436.860123	-82.938985	79.131233	-39.412326	
252	1.2600	453.658811	1404.718321	-98.924209	443.284416	1386.830371	-390.991942	427.651681	1436.959753	-246.789390	386.665363	1297.957186	-240.010621	493.916138	1081.200577	27.255985	717.882996	911.569633	-75.598835	478.281226	1070.176547	-508.707419	718.011286	910.617046	-420.552692	-144.200621	1202.054214	-247.255191	18.949766	1239.005503	-374.906455	30.011750	1234.742984	-96.029053	51.281051	1163.390494	-364.319876	38.125489	1178.156714	-113.418328	-115.287519	1240.267264	-196.013187	-101.167817	1249.258925	-303.631134	-33.770373	1123.287107	-48.393959	-44.206825	1092.909973	-419.585852	109.191297	1069.944554	-50.551721	195.203366	1058.699353	-64.081041	266.352593	1011.591223	-61.791637	205.131884	1088.898944	-83.239866	384.961819	935.859105	-98.726141	377.213078	921.075006	-205.103948	334.274885	802.499823	-73.373192	319.815714	715.435787	-92.539981	269.248468	645.808817	-85.956845	335.275884	713.504155	-128.483511	139.905669	487.498698	-112.412266	425.424944	441.031974	-131.861984	347.256904	415.579563	-58.891016	17.931866	986.921414	-427.490002	89.841546	935.822631	-432.216887	117.970575	958.470148	-425.757827	127.041740	854.858847	-428.549426	226.572536	703.052527	-397.051809	217.757254	687.931111	-299.745975	139.603655	580.759290	-416.245160	107.810591	503.674008	-394.189462	39.931699	444.756895	-400.990463	113.742296	505.300160	-352.685263	-46.094882	342.452353	-395.634228	-125.180774	326.564323	-361.064973	143.577331	219.378894	-359.799821	59.289296	220.693616	-422.787728	-262.689108	965.268867	-237.350468	-82.929267	79.106340	-436.852256	-82.941140	79.118157	-39.398180	
253	1.2650	453.644611	1404.674546	-98.793922	443.389181	1386.813611	-390.907995	427.748601	1436.867270	-246.671823	386.738445	1297.895112	-239.966851	493.958382	1081.183421	27.324344	717.888282	911.568011	-75.614973	478.318844	1070.174547	-508.724721	718.010775	910.620608	-420.550429	-144.149821	1202.044449	-247.255162	18.982124	1238.995644	-374.853389	30.066579	1234.695529	-96.025985	51.316011	1163.368292	-364.330924	38.153382	1178.122117	-113.411030	-115.148193	1240.245019	-196.066155	-101.264484	1249.212732	-303.423350	-33.761903	1123.248837	-48.387836	-44.160263	1092.913255	-419.587299	109.223806	1069.830517	-50.503958	195.211629	1058.545956	-64.038702	266.329504	1011.465077	-61.783980	205.130602	1088.800863	-83.195782	384.922230	935.728263	-98.730610	377.193225	920.928900	-205.108925	334.218483	802.317535	-73.376980	319.759489	715.285459	-92.502213	269.192296	645.697322	-85.967637	335.227639	713.385998	-128.520452	139.843816	487.308973	-112.430763	425.406346	441.090793	-131.835670	347.243049	415.578066	-58.881740	18.019648	986.897317	-427.469952	89.893818	935.816087	-432.218303	118.031478	958.446347	-425.738798	127.101606	854.834288	-428.545482	226.606388	703.025093	-397.048503	217.758799	687.866862	-299.731365	139.606145	580.736602	-416.255846	107.794003	503.686364	-394.183629	39.915778	444.754066	-401.005158	113.724934	505.302355	-352.685514	-46.155928	342.461128	-395.666995	-125.222185	326.554377	-361.105363	143.565966	219.424696	-359.790860	59.277965	220.746746	-422.798862	-262.691771	965.269290	-237.350931	-82.928551	79.111016	-436.860188	-82.942809	79.127276	-39.402735	
